<svg id="MenuIcon" xmlns="http://www.w3.org/2000/svg" width="45.723" height="45.723" viewBox="0 0 45.723 45.723">
  <path id="XMLID_17_" d="M167.62,0h-4.355A3.266,3.266,0,0,0,160,3.266V7.62a3.266,3.266,0,0,0,3.266,3.266h4.355a3.266,3.266,0,0,0,3.266-3.266V3.266A3.266,3.266,0,0,0,167.62,0Z" transform="translate(-125.163)" fill="#2b4162"/>
  <path id="XMLID_18_" d="M87.62,0H83.266A3.266,3.266,0,0,0,80,3.266V7.62a3.266,3.266,0,0,0,3.266,3.266H87.62A3.266,3.266,0,0,0,90.886,7.62V3.266A3.266,3.266,0,0,0,87.62,0Z" transform="translate(-62.582)" fill="#2b4162"/>
  <path id="XMLID_19_" d="M7.62,0H3.266A3.266,3.266,0,0,0,0,3.266V7.62a3.266,3.266,0,0,0,3.266,3.266H7.62A3.266,3.266,0,0,0,10.886,7.62V3.266A3.266,3.266,0,0,0,7.62,0Z" fill="#2b4162"/>
  <path id="XMLID_20_" d="M167.62,160h-4.355A3.266,3.266,0,0,0,160,163.266v4.355a3.266,3.266,0,0,0,3.266,3.266h4.355a3.266,3.266,0,0,0,3.266-3.266v-4.355A3.266,3.266,0,0,0,167.62,160Z" transform="translate(-125.163 -125.163)" fill="#2b4162"/>
  <path id="XMLID_21_" d="M87.62,160H83.266A3.266,3.266,0,0,0,80,163.266v4.355a3.266,3.266,0,0,0,3.266,3.266H87.62a3.266,3.266,0,0,0,3.266-3.266v-4.355A3.266,3.266,0,0,0,87.62,160Z" transform="translate(-62.582 -125.163)" fill="#2b4162"/>
  <path id="XMLID_22_" d="M7.62,160H3.266A3.266,3.266,0,0,0,0,163.266v4.355a3.266,3.266,0,0,0,3.266,3.266H7.62a3.266,3.266,0,0,0,3.266-3.266v-4.355A3.266,3.266,0,0,0,7.62,160Z" transform="translate(0 -125.163)" fill="#2b4162"/>
  <path id="XMLID_23_" d="M167.62,80h-4.355A3.266,3.266,0,0,0,160,83.266V87.62a3.266,3.266,0,0,0,3.266,3.266h4.355a3.266,3.266,0,0,0,3.266-3.266V83.266A3.266,3.266,0,0,0,167.62,80Z" transform="translate(-125.163 -62.582)" fill="#2b4162"/>
  <path id="XMLID_24_" d="M87.62,80H83.266A3.266,3.266,0,0,0,80,83.266V87.62a3.266,3.266,0,0,0,3.266,3.266H87.62a3.266,3.266,0,0,0,3.266-3.266V83.266A3.266,3.266,0,0,0,87.62,80Z" transform="translate(-62.582 -62.582)" fill="#2b4162"/>
  <path id="XMLID_25_" d="M7.62,80H3.266A3.266,3.266,0,0,0,0,83.266V87.62a3.266,3.266,0,0,0,3.266,3.266H7.62a3.266,3.266,0,0,0,3.266-3.266V83.266A3.266,3.266,0,0,0,7.62,80Z" transform="translate(0 -62.582)" fill="#2b4162"/>
</svg>
